<svg id="Document" xmlns="http://www.w3.org/2000/svg" viewBox="0 0 20 20"><defs><style>.cls-1{fill:none;stroke:#8892b0;stroke-miterlimit:10;stroke-width:1.62px;}</style></defs><path class="cls-1" d="M12,1A4.38,4.38,0,0,0,8.85,2.16a4.48,4.48,0,0,0-1.2,3.29V7.26H5.3a.4.4,0,0,0-.39.39v3.13a.39.39,0,0,0,.39.39H7.65v7.44A.4.4,0,0,0,8,19h3.13a.4.4,0,0,0,.4-.39V11.17H14.3a.38.38,0,0,0,.39-.34l.39-3.13a.39.39,0,0,0-.34-.44H11.57V5.7a.78.78,0,0,1,.78-.79H14.7a.39.39,0,0,0,.39-.39v-3a.39.39,0,0,0-.34-.39A26.54,26.54,0,0,0,12,1Z"/></svg>