<svg id="Document" xmlns="http://www.w3.org/2000/svg" viewBox="0 0 20 20"><defs><style>.cls-1{fill:none;stroke:#8892b0;stroke-linecap:round;stroke-linejoin:round;stroke-width:1.69px;}</style></defs><path class="cls-1" d="M7.67,16.36c-4.23,1.27-4.23-2.12-5.92-2.54M13.6,18.9V15.62a2.88,2.88,0,0,0-.8-2.21c2.66-.29,5.45-1.3,5.45-5.92A4.56,4.56,0,0,0,17,4.32a4.24,4.24,0,0,0-.08-3.19s-1-.3-3.3,1.25a11.26,11.26,0,0,0-5.93,0C5.36.83,4.36,1.13,4.36,1.13a4.29,4.29,0,0,0-.07,3.19A4.59,4.59,0,0,0,3,7.52c0,4.58,2.79,5.59,5.45,5.92a2.88,2.88,0,0,0-.8,2.18V18.9"/></svg>