<svg id="Layer_3" data-name="Layer 3" xmlns="http://www.w3.org/2000/svg" viewBox="0 0 500 500">
  <defs>
    <style>
      .cls-1,
      .cls-2 {
        fill: #64ffda;
      }

      .cls-1 {
        opacity: 0.1;
      }

      .cls-3 {
        fill: #ccd6f6;
      }
    </style>
  </defs>
  <path class="cls-1" d="M259,141.16V358.84H200V327h23.45V173" />
  <path class="cls-2" d="M223,358.84V327h23.45V173h-23V141.16H282V358.84Z" />
  <path class="cls-3"
    d="M375,141.16c26.43,24.83,51.24,51.4,75.54,78.28,7.66,8.57,19.94,22.43,27.45,31.08l-3.48,3.94c-29.68,33.68-60.47,67.17-92.89,98.2-2.21,2.06-4.38,4.15-6.62,6.18,2.9-4.21,7.53-10.44,10.63-14.64,25-33.52,52.33-66.12,79.86-97.66l0,7.89-11.81-13.71c-27.3-32.17-54.32-65.08-78.66-99.56Z" />
  <path class="cls-3"
    d="M125,141.16c-24.33,34.47-51.36,67.39-78.66,99.56L34.53,254.43l0-7.89c27.54,31.54,54.83,64.13,79.86,97.66,3,4.07,7.73,10.46,10.63,14.64-2.24-2-4.41-4.12-6.62-6.18-32.41-31-63.22-64.53-92.89-98.2L22,250.52c7.51-8.64,19.78-22.54,27.45-31.08C73.76,192.56,98.57,166,125,141.16Z" />
</svg>