<svg id="Document" xmlns="http://www.w3.org/2000/svg" viewBox="0 0 20 20"><defs><style>.cls-1{fill:#8892b0;}</style></defs><path class="cls-1" d="M10.14,1a9,9,0,1,0,5.49,16l-.94-1.17A7.5,7.5,0,1,1,10.12,2.51,7.58,7.58,0,0,1,17.5,9.77V10a3,3,0,0,1-3,3A1.49,1.49,0,0,1,13,11.5v-6H11.5v.58A3.36,3.36,0,0,0,6.25,8.88v2.25a3.36,3.36,0,0,0,5.91,2.2A3,3,0,0,0,14.5,14.5,4.51,4.51,0,0,0,19,10V9.72A9.06,9.06,0,0,0,10.14,1ZM9.63,7A1.86,1.86,0,0,1,11.5,8.88v2.25a1.88,1.88,0,0,1-3.75,0V8.88A1.87,1.87,0,0,1,9.63,7Z"/></svg>